<svg width="43" height="48" viewBox="0 0 43 48" fill="none" xmlns="http://www.w3.org/2000/svg">
<path d="M20.1054 14.8507C20.7046 14.1435 21.7953 14.1435 22.3944 14.8507L23.1164 15.7028C23.4838 16.1365 24.0647 16.3252 24.6168 16.1904L25.7018 15.9253C26.6022 15.7054 27.4845 16.3465 27.5536 17.2707L27.6368 18.3845C27.6792 18.9513 28.0382 19.4454 28.5641 19.6608L29.5977 20.0842C30.4554 20.4354 30.7924 21.4727 30.305 22.2611L29.7177 23.211C29.4188 23.6945 29.4188 24.3053 29.7177 24.7887L30.305 25.7387C30.7924 26.527 30.4554 27.5643 29.5977 27.9155L28.5641 28.3389C28.0382 28.5543 27.6792 29.0485 27.6368 29.6152L27.5536 30.729C27.4845 31.6532 26.6022 32.2943 25.7018 32.0744L24.6168 31.8094C24.0647 31.6745 23.4838 31.8632 23.1164 32.2969L22.3944 33.149C21.7953 33.8562 20.7046 33.8562 20.1054 33.149L19.3835 32.2969C19.0161 31.8632 18.4352 31.6745 17.883 31.8094L16.7981 32.0744C15.8977 32.2943 15.0153 31.6532 14.9463 30.729L14.8631 29.6152C14.8207 29.0485 14.4617 28.5543 13.9358 28.3389L12.9022 27.9155C12.0445 27.5643 11.7075 26.527 12.1949 25.7387L12.7822 24.7887C13.0811 24.3053 13.0811 23.6945 12.7822 23.211L12.1949 22.2611C11.7075 21.4727 12.0445 20.4354 12.9022 20.0842L13.9358 19.6608C14.4617 19.4454 14.8207 18.9513 14.8631 18.3845L14.9463 17.2707C15.0153 16.3465 15.8977 15.7054 16.7981 15.9253L17.883 16.1904C18.4352 16.3252 19.0161 16.1365 19.3835 15.7028L20.1054 14.8507Z" fill="#2081E2"/>
<path d="M20.125 25.9688L18.1562 24L17.5 24.6562L20.125 27.2812L25.75 21.6562L25.0938 21L20.125 25.9688Z" fill="white" stroke="white" stroke-width="0.75"/>
</svg>
